<svg xmlns="http://www.w3.org/2000/svg" viewBox="0 0 207.4 264.07"><g id="Layer_2" data-name="Layer 2"><g id="Layer_3" data-name="Layer 3"><path d="M207,158.54a95.71,95.71,0,0,0-2.11-13H176.7q.78,2.35,1.38,4.79c.06.25.13.49.18.74a70.69,70.69,0,0,1-.7,35.43l-.12.41a70.18,70.18,0,0,1-14.12,26.21l-.35.42a70.41,70.41,0,0,1-45.1,23.89c-1.76.21-3.54.34-5.34.41-.93,0-1.87.06-2.81.06s-1.89,0-2.82-.06H26.62V213.14h85.69a47.63,47.63,0,0,0,36.47-26.21l.2-.41a47,47,0,0,0,3.47-10l.18-.81a47.91,47.91,0,0,0,1-9.72A47.28,47.28,0,0,0,149,145.56c-.07-.14-.13-.28-.2-.41l-.09-.17c-.1-.21-.2-.42-.31-.62a47.54,47.54,0,0,0-11.72-14.68l-.31-.27a47.34,47.34,0,0,0-30.24-10.89h-4.67a20.72,20.72,0,0,1-19.88-15c-.06-.22-.12-.43-.17-.64a20.67,20.67,0,0,1,20-25.79H207V0H88.65a97.62,97.62,0,0,0-57,25.19c-.28.25-.56.5-.83.76l-.29.27-.44.41c-1,1-2,2-3,3l-.42.43A97.17,97.17,0,0,0,11.69,50.52l-.22.41A95.44,95.44,0,0,0,2,77.14c0,.14-.06.28-.08.41a95.74,95.74,0,0,0-1.46,10Q0,91.91,0,96.42c0,3,.14,6,.41,8.92a97.12,97.12,0,0,0,2.16,13.18h28.2c-.54-1.64-1-3.31-1.45-5-.07-.24-.13-.48-.18-.73a70.75,70.75,0,0,1,.64-35.23l.12-.41a70.18,70.18,0,0,1,14-26.21c.11-.14.23-.28.35-.41A70.42,70.42,0,0,1,87.93,26.63c1.21-.17,2.42-.31,3.65-.41,2-.18,4-.27,6.1-.27h83.1v25H95.16A47.64,47.64,0,0,0,58.6,77.14c-.07.14-.13.28-.2.41A47.56,47.56,0,0,0,55,87.3c-.06.26-.12.53-.17.8a47.54,47.54,0,0,0,3.59,30.42c.07.14.13.28.2.41h.06a.08.08,0,0,1,0,0c.1.21.21.42.32.63a47.79,47.79,0,0,0,11.78,14.8l.31.26a47.3,47.3,0,0,0,30.24,10.9c.56,0,1.13,0,1.69,0l-.2,0h7.06a20.83,20.83,0,0,1,16.4,14.57l.18.64a20.79,20.79,0,0,1-16.51,25.75H.41v77.55H116.1a97.71,97.71,0,0,0,60.6-26.21l.44-.41c1.1-1,2.18-2.11,3.22-3.2l.42-.43a97.93,97.93,0,0,0,14.82-20.26c.07-.14.14-.28.22-.42a95.46,95.46,0,0,0,9.59-26.21c0-.14.05-.27.08-.41a94.34,94.34,0,0,0,1.5-10.15q.4-4.41.41-8.92C207.4,164.45,207.26,161.47,207,158.54Z"/></g></g></svg>